<?xml version="1.0" standalone="no"?>
<svg xmlns:xlink="http://www.w3.org/1999/xlink" id="wave" style="transform:rotate(0deg); transition: 0.3s" viewBox="0 0 1440 390" version="1.1" xmlns="http://www.w3.org/2000/svg"><defs><linearGradient id="sw-gradient-0" x1="0" x2="0" y1="1" y2="0"><stop stop-color="rgba(231.219, 232.552, 227.219, 1)" offset="0%"/><stop stop-color="rgba(243.57, 243.936, 242.473, 1)" offset="100%"/></linearGradient></defs><path style="transform:translate(0, 0px); opacity:1" fill="url(#sw-gradient-0)" d="M0,0L80,58.5C160,117,320,234,480,253.5C640,273,800,195,960,149.5C1120,104,1280,91,1440,130C1600,169,1760,260,1920,292.5C2080,325,2240,299,2400,253.5C2560,208,2720,143,2880,97.5C3040,52,3200,26,3360,13C3520,0,3680,0,3840,26C4000,52,4160,104,4320,104C4480,104,4640,52,4800,65C4960,78,5120,156,5280,156C5440,156,5600,78,5760,45.5C5920,13,6080,26,6240,26C6400,26,6560,13,6720,6.5C6880,0,7040,0,7200,19.5C7360,39,7520,78,7680,97.5C7840,117,8000,117,8160,110.5C8320,104,8480,91,8640,84.5C8800,78,8960,78,9120,91C9280,104,9440,130,9600,117C9760,104,9920,52,10080,65C10240,78,10400,156,10560,188.5C10720,221,10880,208,11040,214.5C11200,221,11360,247,11440,260L11520,273L11520,390L11440,390C11360,390,11200,390,11040,390C10880,390,10720,390,10560,390C10400,390,10240,390,10080,390C9920,390,9760,390,9600,390C9440,390,9280,390,9120,390C8960,390,8800,390,8640,390C8480,390,8320,390,8160,390C8000,390,7840,390,7680,390C7520,390,7360,390,7200,390C7040,390,6880,390,6720,390C6560,390,6400,390,6240,390C6080,390,5920,390,5760,390C5600,390,5440,390,5280,390C5120,390,4960,390,4800,390C4640,390,4480,390,4320,390C4160,390,4000,390,3840,390C3680,390,3520,390,3360,390C3200,390,3040,390,2880,390C2720,390,2560,390,2400,390C2240,390,2080,390,1920,390C1760,390,1600,390,1440,390C1280,390,1120,390,960,390C800,390,640,390,480,390C320,390,160,390,80,390L0,390Z"/></svg>